<?xml version="1.0" encoding="UTF-8" standalone="no"?><!DOCTYPE svg PUBLIC "-//W3C//DTD SVG 1.1//EN" "http://www.w3.org/Graphics/SVG/1.1/DTD/svg11.dtd"><svg width="100%" height="100%" viewBox="0 0 1792 1792" version="1.1" xmlns="http://www.w3.org/2000/svg" xmlns:xlink="http://www.w3.org/1999/xlink" xml:space="preserve" style="fill-rule:evenodd;clip-rule:evenodd;stroke-linejoin:round;stroke-miterlimit:1.41421;"><path d="M192,1664l288,0l0,-288l-288,0l0,288Zm352,0l320,0l0,-288l-320,0l0,288Zm-352,-352l288,0l0,-320l-288,0l0,320Zm352,0l320,0l0,-320l-320,0l0,320Zm-352,-384l288,0l0,-288l-288,0l0,288Zm736,736l320,0l0,-288l-320,0l0,288Zm-384,-736l320,0l0,-288l-320,0l0,288Zm768,736l288,0l0,-288l-288,0l0,288Zm-384,-352l320,0l0,-320l-320,0l0,320Zm-352,-864l0,-288c0,-8.667 -3.167,-16.167 -9.5,-22.5c-6.333,-6.333 -13.833,-9.5 -22.5,-9.5l-64,0c-8.667,0 -16.167,3.167 -22.5,9.5c-6.333,6.333 -9.5,13.833 -9.5,22.5l0,288c0,8.667 3.167,16.167 9.5,22.5c6.333,6.333 13.833,9.5 22.5,9.5l64,0c8.667,0 16.167,-3.167 22.5,-9.5c6.333,-6.333 9.5,-13.833 9.5,-22.5Zm736,864l288,0l0,-320l-288,0l0,320Zm-384,-384l320,0l0,-288l-320,0l0,288Zm384,0l288,0l0,-288l-288,0l0,288Zm32,-480l0,-288c0,-8.667 -3.167,-16.167 -9.5,-22.5c-6.333,-6.333 -13.833,-9.5 -22.5,-9.5l-64,0c-8.667,0 -16.167,3.167 -22.5,9.5c-6.333,6.333 -9.5,13.833 -9.5,22.5l0,288c0,8.667 3.167,16.167 9.5,22.5c6.333,6.333 13.833,9.5 22.5,9.5l64,0c8.667,0 16.167,-3.167 22.5,-9.5c6.333,-6.333 9.5,-13.833 9.5,-22.5Zm384,-64l0,1280c0,34.667 -12.667,64.667 -38,90c-25.333,25.333 -55.333,38 -90,38l-1408,0c-34.667,0 -64.667,-12.667 -90,-38c-25.333,-25.333 -38,-55.333 -38,-90l0,-1280c0,-34.667 12.667,-64.667 38,-90c25.333,-25.333 55.333,-38 90,-38l128,0l0,-96c0,-44 15.667,-81.667 47,-113c31.333,-31.333 69,-47 113,-47l64,0c44,0 81.667,15.667 113,47c31.333,31.333 47,69 47,113l0,96l384,0l0,-96c0,-44 15.667,-81.667 47,-113c31.333,-31.333 69,-47 113,-47l64,0c44,0 81.667,15.667 113,47c31.333,31.333 47,69 47,113l0,96l128,0c34.667,0 64.667,12.667 90,38c25.333,25.333 38,55.333 38,90Z" style="fill:#512b2b;fill-rule:nonzero;"/></svg>