<?xml version="1.0" encoding="UTF-8" standalone="no"?><!DOCTYPE svg PUBLIC "-//W3C//DTD SVG 1.1//EN" "http://www.w3.org/Graphics/SVG/1.1/DTD/svg11.dtd"><svg width="100%" height="100%" viewBox="0 0 1792 1792" version="1.1" xmlns="http://www.w3.org/2000/svg" xmlns:xlink="http://www.w3.org/1999/xlink" xml:space="preserve" style="fill-rule:evenodd;clip-rule:evenodd;stroke-linejoin:round;stroke-miterlimit:1.41421;"><path d="M1024,544l0,448c0,9.333 -3,17 -9,23c-6,6 -13.667,9 -23,9l-320,0c-9.333,0 -17,-3 -23,-9c-6,-6 -9,-13.667 -9,-23l0,-64c0,-9.333 3,-17 9,-23c6,-6 13.667,-9 23,-9l224,0l0,-352c0,-9.333 3,-17 9,-23c6,-6 13.667,-9 23,-9l64,0c9.333,0 17,3 23,9c6,6 9,13.667 9,23Zm416,352c0,-98.667 -24.333,-189.667 -73,-273c-48.667,-83.333 -114.667,-149.333 -198,-198c-83.333,-48.667 -174.333,-73 -273,-73c-98.667,0 -189.667,24.333 -273,73c-83.333,48.667 -149.333,114.667 -198,198c-48.667,83.333 -73,174.333 -73,273c0,98.667 24.333,189.667 73,273c48.667,83.333 114.667,149.333 198,198c83.333,48.667 174.333,73 273,73c98.667,0 189.667,-24.333 273,-73c83.333,-48.667 149.333,-114.667 198,-198c48.667,-83.333 73,-174.333 73,-273Zm224,0c0,139.333 -34.333,267.833 -103,385.5c-68.667,117.667 -161.833,210.833 -279.5,279.5c-117.667,68.667 -246.167,103 -385.5,103c-139.333,0 -267.833,-34.333 -385.5,-103c-117.667,-68.667 -210.833,-161.833 -279.5,-279.5c-68.667,-117.667 -103,-246.167 -103,-385.5c0,-139.333 34.333,-267.833 103,-385.5c68.667,-117.667 161.833,-210.833 279.5,-279.5c117.667,-68.667 246.167,-103 385.5,-103c139.333,0 267.833,34.333 385.5,103c117.667,68.667 210.833,161.833 279.5,279.5c68.667,117.667 103,246.167 103,385.5Z" style="fill:#512b2b;fill-rule:nonzero;"/></svg>